# xmcd
#
# Track frame offsets:
#	150
#	17460
#	24852
#	69260
#	116202
#	158187
#	219185
#
# Disc length: 3014 seconds
#
# Revision: 1
# Processed by: cddbd v1.5.1PL0 Copyright (c) Steve Scherf et al.
# Submitted via: CDex 1.50Beta5
#
DISCID=4c0bc407
DTITLE=Various Artist - ひみつ戦隊メタモル? 〜金色のショック!寄生宇宙人の怪〜
DYEAR=1900
DGENRE=Anime
TTITLE0=プロローグ〜新条咲慧と仲間たち
TTITLE1=メタモルVのうた
TTITLE2=居残り作業〜プールの幽霊
TTITLE3=捺紀の回想〜メタモルV行動開始
TTITLE4=寄生宇宙人〜プラエキノとの遭遇
TTITLE5=咲慧の解決〜エピローグ
TTITLE6=メタモルVよ永遠に
EXTD=
EXTT0=
EXTT1=
EXTT2=
EXTT3=
EXTT4=
EXTT5=
EXTT6=
PLAYORDER=
